<svg width="277" height="277" viewBox="0 0 277 277" fill="none" xmlns="http://www.w3.org/2000/svg">
<path fill-rule="evenodd" clip-rule="evenodd" d="M170.545 244.317C197.142 237.12 223.38 223.412 241.439 200.054C259.465 176.728 269.312 143.718 263.325 116.401C257.338 89.1163 235.55 67.4915 199.367 55.8122C163.184 44.1328 112.606 42.3989 75.4741 59.0183C38.3096 75.6049 14.591 110.545 6.87022 141.788C-0.850578 173.064 7.4591 200.643 23.9803 218.538C40.5342 236.433 65.3324 244.645 91.2101 248.407C117.055 252.169 143.98 251.482 170.545 244.317Z" fill="#F8F8F8"/>
<path fill-rule="evenodd" clip-rule="evenodd" d="M121.766 98.9309C121.668 99.716 121.897 101.843 122.453 103.315C123.009 104.787 123.925 105.572 125.005 106.586C126.052 107.6 127.295 108.844 128.146 109.923C128.996 110.97 129.454 111.886 130.796 112.737C132.137 113.587 134.394 114.372 136.324 114.929C138.222 115.485 139.792 115.812 141.821 115.092C143.849 114.372 146.335 112.573 148.102 110.643C149.836 108.713 150.85 106.684 151.766 104.787C152.682 102.889 153.5 101.09 153.925 99.5198C154.318 97.9494 154.351 96.6081 153.435 96.7062C152.518 96.8044 150.686 98.3747 148.462 99.716C146.237 101.057 143.653 102.202 140.708 102.857C137.764 103.544 134.525 103.773 131.973 103.478C129.454 103.217 127.655 102.431 126.248 101.646C124.809 100.828 123.795 100.043 123.075 99.3889C122.355 98.7019 121.897 98.1457 121.766 98.9309Z" stroke="#373435" stroke-width="0.199992"/>
<path fill-rule="evenodd" clip-rule="evenodd" d="M63.1731 176.237C61.4719 179.541 58.6584 184.71 56.2702 192.104C53.8493 199.53 51.8209 209.214 50.1197 216.64C48.4186 224.034 47.0445 229.17 46.3575 231.722C45.6705 234.274 45.6705 234.274 45.6705 234.274C45.6705 234.274 45.6705 234.274 47.2408 234.961C48.8111 235.615 51.9518 236.924 54.798 238.036C57.6442 239.116 60.2288 239.999 61.5046 240.457C62.8133 240.882 62.8133 240.882 64.8089 235.484C66.8045 230.086 70.7958 219.258 74.0346 210.457C77.2734 201.69 79.7598 194.918 81.6572 190.828C83.5547 186.739 84.8633 185.332 85.6812 183.173C86.5318 181.014 86.8917 178.069 83.9473 175.681C80.9702 173.293 74.6889 171.428 71.1229 170.545C67.5897 169.694 66.8045 169.792 66.1175 170.61C65.4305 171.395 64.8416 172.9 63.1731 176.237Z" fill="url(#paint0_linear)"/>
<path fill-rule="evenodd" clip-rule="evenodd" d="M224.656 92.7149C226.324 91.0792 227.633 89.4107 228.32 88.5928C229.039 87.7749 229.138 87.7749 224.263 85.2232C219.356 82.7041 209.443 77.6332 200.185 73.7401C190.959 69.847 182.387 67.1643 177.84 65.8557C173.26 64.5798 172.704 64.678 172.933 62.1262C173.162 59.6071 174.176 54.4381 174.667 51.8209C175.19 49.2364 175.19 49.2364 176.597 49.5963C178.004 49.9234 180.817 50.5777 181.995 50.9376C183.173 51.2647 182.747 51.2647 186.739 52.1153C190.73 52.9659 199.17 54.6344 208.134 56.401C217.098 58.1349 226.553 59.9343 235.288 63.2712C244.023 66.6082 252.006 71.45 256.291 75.4413C260.577 79.4326 261.133 82.6059 259.726 86.6299C258.32 90.6866 254.95 95.6593 252.398 99.1926C249.814 102.759 248.08 104.885 247.196 105.965C246.346 107.044 246.346 107.044 245.43 107.568C244.481 108.091 242.649 109.171 238.102 107.568C233.521 105.997 226.226 101.777 223.609 98.8654C220.959 95.9538 222.987 94.3507 224.656 92.7149Z" fill="url(#paint1_linear)"/>
<path fill-rule="evenodd" clip-rule="evenodd" d="M94.9396 247.72C94.2199 246.706 94.1217 245.561 94.2199 245.561C94.3507 245.528 94.6452 246.608 93.3038 234.208C91.9625 221.777 88.9527 195.834 87.2842 175.157C85.6158 154.481 85.2886 139.04 85.125 131.319C84.9287 123.598 84.9287 123.598 84.9287 123.042C84.9287 122.486 84.9287 121.341 86.7281 119.934C88.5601 118.527 92.1588 116.826 96.0846 115.779C100.043 114.7 104.329 114.242 107.535 112.835C110.741 111.428 112.868 109.073 114.143 108.091C115.387 107.11 115.779 107.502 122.649 107.535C129.52 107.568 142.9 107.208 149.509 106.979C156.15 106.75 156.019 106.652 156.542 106.848C157.033 107.044 158.178 107.535 161.679 107.731C165.147 107.928 171.003 107.83 174.241 107.764C177.447 107.699 178.004 107.699 178.789 107.83C179.574 107.928 180.588 108.157 181.242 108.615C181.929 109.073 182.224 109.76 183.631 114.209C185.037 118.658 187.556 126.87 189.356 142.311C191.188 157.753 192.3 180.392 193.38 197.895C194.427 215.43 195.408 227.862 195.932 234.339C196.422 240.817 196.455 241.34 196.52 241.733C196.586 242.126 196.717 242.355 196.749 242.453C196.815 242.584 196.815 242.584 187.295 244.416C177.775 246.28 158.734 250.01 142.344 251.319C125.954 252.594 112.213 251.482 104.623 250.501C97.0661 249.519 95.6921 248.701 94.9396 247.72Z" fill="#B5991A"/>
<path fill-rule="evenodd" clip-rule="evenodd" d="M119.28 109.302C118.92 109.138 118.266 109.236 116.957 109.858C115.648 110.479 113.653 111.624 113.031 113.227C112.442 114.798 113.227 116.826 114.602 118.2C116.008 119.607 117.971 120.327 118.985 120.588C119.967 120.883 119.967 120.686 119.934 118.887C119.901 117.121 119.869 113.685 119.771 111.755C119.705 109.858 119.64 109.432 119.28 109.302Z" fill="#9C7D0B"/>
<path fill-rule="evenodd" clip-rule="evenodd" d="M86.1392 183.925C84.209 183.238 80.3486 182.322 75.9975 180.49C71.6464 178.691 66.8045 175.975 64.2527 174.405C61.7337 172.835 61.5047 172.377 62.6824 168.549C63.8602 164.721 66.4774 157.524 69.4545 150.817C72.4316 144.111 75.8012 137.895 78.5493 133.086C81.2974 128.244 83.3584 124.743 84.6343 122.78C85.8775 120.817 86.3028 120.392 86.8263 119.967C87.3497 119.542 87.9713 119.149 88.7237 129.225C89.5089 139.302 90.4249 159.847 90.3595 170.97C90.2941 182.093 89.2472 183.827 88.691 184.449C88.1349 185.07 88.1022 184.612 86.1392 183.925Z" fill="#B5991A"/>
<path fill-rule="evenodd" clip-rule="evenodd" d="M181.504 108.091C183.402 108.189 186.739 108.287 190.206 108.745C193.674 109.171 197.273 109.956 202.671 107.764C208.069 105.572 215.299 100.403 219.127 97.2296C222.954 94.089 223.412 92.9439 223.641 92.3878C223.87 91.8316 223.87 91.8316 225.048 92.7149C226.226 93.631 228.581 95.4303 231.362 96.5753C234.11 97.6876 237.251 98.1457 240.032 100.043C242.78 101.973 245.135 105.343 246.346 107.044C247.524 108.713 247.524 108.713 244.252 112.835C240.981 116.957 234.437 125.168 228.483 131.482C222.496 137.797 217.098 142.18 211.864 147.088C206.63 151.995 201.559 157.393 198.287 162.562C195.048 167.764 193.609 172.704 192.889 175.157C192.169 177.611 192.169 177.611 191.417 172.769C190.664 167.927 189.192 158.276 186.968 146.63C184.71 135.016 181.766 121.406 180.49 114.667C179.214 107.928 179.639 107.993 181.504 108.091Z" fill="#B5991A"/>
<path fill-rule="evenodd" clip-rule="evenodd" d="M175.615 49.4328C175.027 49.8908 174.83 50.8723 174.569 52.4099C174.274 53.9475 173.881 56.074 173.587 57.7752C173.293 59.5091 173.129 60.8177 173.031 61.7337C172.933 62.617 172.933 63.1078 173.064 63.5003C173.162 63.8602 173.358 64.1546 173.587 64.3837C173.849 64.5799 174.143 64.7435 174.569 64.8744C174.994 65.038 175.517 65.2015 176.073 65.3651C176.63 65.5287 177.251 65.6923 177.546 65.7904C177.84 65.8558 177.84 65.8558 178.233 64.4491C178.625 63.0096 179.443 60.1961 180.13 57.7097C180.85 55.2234 181.406 53.0642 181.7 52.0173C181.995 50.9377 181.995 50.9377 181.373 50.6433C180.752 50.3815 179.476 49.7927 178.363 49.4655C177.218 49.1383 176.204 49.0075 175.615 49.4328Z" fill="#1F1F1F"/>
<path fill-rule="evenodd" clip-rule="evenodd" d="M119.967 118.527C119.967 112.311 119.509 103.577 119.312 99.2254C119.083 94.8743 119.083 94.8743 125.267 94.8743C131.483 94.8743 143.849 94.8743 150.065 94.9724C156.248 95.1033 156.248 95.3323 156.019 98.6038C155.79 101.843 155.365 108.157 155.463 113.915C155.528 119.64 156.183 124.809 156.51 127.393C156.804 129.978 156.804 129.978 153.696 132.366C150.556 134.721 144.274 139.465 141.134 141.853C137.993 144.209 137.993 144.209 134.885 142.213C131.744 140.218 125.463 136.226 122.322 134.231C119.182 132.202 119.182 132.202 119.378 130.338C119.607 128.473 119.999 124.743 119.967 118.527Z" fill="url(#paint2_linear)"/>
<path fill-rule="evenodd" clip-rule="evenodd" d="M133.609 109.498C129.552 108.091 124.514 105.114 120.948 101.286C117.415 97.426 115.354 92.7805 113.718 86.7936C112.082 80.774 110.839 73.4785 111.297 67.9496C111.755 62.4207 113.882 58.6912 116.826 55.845C119.738 52.966 123.467 50.9377 127.524 49.8581C131.581 48.7785 135.965 48.6803 140.381 49.4C144.798 50.0871 149.247 51.6247 152.289 52.8679C155.332 54.111 156.968 55.0598 157.917 58.2332C158.833 61.4065 159.062 66.8046 158.963 72.6606C158.833 78.5493 158.407 84.8307 157.851 89.2472C157.295 93.6311 156.673 96.1174 154.318 99.3235C151.93 102.53 147.84 106.488 144.274 108.549C140.708 110.643 137.666 110.872 133.609 109.498Z" fill="#FFC36C"/>
<path fill-rule="evenodd" clip-rule="evenodd" d="M120.294 112.671C120.916 113.26 122.159 116.074 123.336 119.084C124.547 122.126 125.659 125.398 126.379 127.459C127.066 129.52 127.36 130.37 127.099 130.698C126.837 131.057 126.052 130.927 124.71 130.174C123.402 129.422 121.537 128.08 120.621 126.674C119.738 125.299 119.803 123.827 119.836 121.93C119.869 120.032 119.836 117.677 119.803 115.681C119.77 113.718 119.705 112.083 120.294 112.671Z" fill="#FCA352"/>
<path fill-rule="evenodd" clip-rule="evenodd" d="M160.828 58.9856C161.581 59.7708 162.333 62.159 162.366 64.4491C162.398 66.7719 161.711 69.0292 161.024 70.7631C160.337 72.5298 159.618 73.7729 159.16 73.7729C158.702 73.7729 158.538 72.497 158.407 70.8613C158.309 69.2255 158.276 67.2299 158.178 65.8886C158.113 64.5472 157.982 63.8602 158.015 62.9442C158.08 62.0282 158.309 60.8831 158.8 59.9344C159.29 58.9529 160.076 58.2005 160.828 58.9856Z" fill="#1F1F1F"/>
<path d="M143.653 82.377C144.682 82.377 145.517 81.0295 145.517 79.3672C145.517 77.705 144.682 76.3574 143.653 76.3574C142.623 76.3574 141.788 77.705 141.788 79.3672C141.788 81.0295 142.623 82.377 143.653 82.377Z" fill="#212121"/>
<path d="M127.786 82.6715C128.816 82.6715 129.651 81.3239 129.651 79.6617C129.651 77.9994 128.816 76.6519 127.786 76.6519C126.756 76.6519 125.921 77.9994 125.921 79.6617C125.921 81.3239 126.756 82.6715 127.786 82.6715Z" fill="#212121"/>
<path fill-rule="evenodd" clip-rule="evenodd" d="M123.631 72.7915C124.645 72.268 126.444 71.7119 127.851 71.5483C129.258 71.3847 130.272 71.6137 129.88 71.9409C129.487 72.268 127.688 72.726 126.183 73.1186C124.645 73.5112 123.402 73.8711 122.911 73.8057C122.388 73.7402 122.617 73.2822 123.631 72.7915Z" fill="#212121"/>
<path fill-rule="evenodd" clip-rule="evenodd" d="M141.395 73.5111C142.442 73.0859 144.274 72.6606 145.714 72.6278C147.12 72.5624 148.102 72.8568 147.709 73.184C147.284 73.4784 145.452 73.7729 143.882 74.0673C142.344 74.329 141.101 74.558 140.577 74.4599C140.087 74.3617 140.348 73.9364 141.395 73.5111Z" fill="#212121"/>
<path fill-rule="evenodd" clip-rule="evenodd" d="M131.777 95.0378C133.675 94.0563 137.895 93.3693 140.348 93.5329C142.802 93.6965 143.456 94.6779 143.26 95.5285C143.096 96.3791 142.017 97.0989 140.414 97.4587C138.811 97.7859 136.684 97.7859 134.983 97.9167C133.282 98.0476 132.039 98.3093 131.188 97.7859C130.338 97.2952 129.88 96.0193 131.777 95.0378Z" fill="white"/>
<path fill-rule="evenodd" clip-rule="evenodd" d="M156.215 108.157C156.575 107.993 157.197 108.091 158.505 108.713C159.847 109.334 161.842 110.447 162.464 112.05C163.086 113.62 162.3 115.681 160.926 117.055C159.552 118.429 157.557 119.182 156.575 119.443C155.594 119.738 155.594 119.574 155.594 117.775C155.626 115.975 155.659 112.54 155.692 110.643C155.757 108.713 155.855 108.32 156.215 108.157Z" fill="#9C7D0B"/>
<path fill-rule="evenodd" clip-rule="evenodd" d="M137.96 135.997C142.409 135.67 147.48 131.483 149.999 129.454C152.551 127.426 152.551 127.557 152.715 128.342C152.878 129.16 153.205 130.632 153.434 131.352C153.663 132.039 153.794 131.941 152.093 133.282C150.392 134.623 146.859 137.404 144.601 139.269C142.344 141.101 141.363 141.984 140.61 142.573C139.858 143.162 139.367 143.424 138.974 143.554C138.582 143.685 138.353 143.685 138.058 143.653C137.797 143.587 137.535 143.554 137.175 143.456C136.815 143.391 136.39 143.293 134.231 142.017C132.039 140.774 128.113 138.32 126.117 136.979C124.154 135.67 124.122 135.441 124.318 134.46C124.547 133.511 125.038 131.744 125.332 130.763C125.627 129.781 125.725 129.585 127.688 131.221C129.683 132.824 133.511 136.324 137.96 135.997Z" fill="#3D3D3D"/>
<path fill-rule="evenodd" clip-rule="evenodd" d="M108.549 61.7664C108.091 62.3553 107.633 64.1874 107.764 66.2157C107.862 68.2768 108.549 70.5341 109.302 72.1699C110.054 73.7729 110.937 74.7871 111.363 74.7871C111.821 74.7871 111.853 73.7729 111.886 72.268C111.952 70.7304 111.984 68.7348 112.082 67.3935C112.148 66.0521 112.279 65.3651 111.919 64.6781C111.559 63.9911 110.708 63.2713 110.087 62.5843C109.432 61.8973 109.007 61.2103 108.549 61.7664Z" fill="#1F1F1F"/>
<path fill-rule="evenodd" clip-rule="evenodd" d="M155.005 113.129C154.383 113.718 153.14 116.532 151.962 119.574C150.752 122.617 149.639 125.888 148.92 127.917C148.233 129.978 147.938 130.828 148.2 131.188C148.462 131.548 149.247 131.384 150.588 130.632C151.897 129.912 153.762 128.571 154.678 127.164C155.561 125.757 155.496 124.285 155.463 122.388C155.43 120.49 155.463 118.135 155.496 116.172C155.528 114.176 155.594 112.54 155.005 113.129Z" fill="#FCA352"/>
<path fill-rule="evenodd" clip-rule="evenodd" d="M164.002 116.27C163.969 118.429 163.936 121.57 162.137 124.514C160.337 127.491 156.837 130.272 153.238 133.02C149.64 135.768 145.975 138.451 144.143 139.792C142.279 141.166 142.279 141.166 142.311 141.134C142.311 141.134 142.344 141.134 142.213 138.745C142.082 136.39 141.788 131.679 141.69 129.291C141.624 126.87 141.722 126.739 141.919 126.641C142.082 126.51 142.344 126.379 145.092 124.907C147.873 123.435 153.14 120.654 155.954 118.985C158.734 117.35 159.094 116.826 159.421 116.434C159.749 116.041 160.108 115.779 159.454 114.503C158.8 113.228 157.131 111.003 156.313 109.858C155.496 108.746 155.496 108.746 155.496 108.418C155.528 108.091 155.528 107.47 155.561 107.142C155.561 106.815 155.561 106.783 155.561 106.75C155.561 106.75 155.561 106.75 155.626 106.75C155.692 106.75 155.855 106.783 155.855 106.684C155.855 106.619 155.725 106.423 155.757 106.423C155.79 106.423 155.986 106.586 156.935 107.044C157.884 107.502 159.618 108.287 160.926 109.105C162.235 109.956 163.118 110.872 163.576 111.886C164.034 112.933 164.034 114.111 164.002 116.27Z" fill="#A18214"/>
<path fill-rule="evenodd" clip-rule="evenodd" d="M139.465 161.515C140.839 179.41 143.62 215.168 145.158 233.031C146.662 250.926 146.924 250.893 147.055 250.86C147.186 250.86 147.186 250.86 147.219 250.86C147.284 250.86 147.382 250.828 147.284 246.804C147.153 242.78 146.793 234.732 145.387 216.869C143.947 198.974 141.461 171.264 140.479 157.262C139.531 143.227 140.054 142.9 139.923 142.9C139.76 142.933 138.909 143.293 138.484 143.456C138.058 143.653 138.058 143.653 139.465 161.515Z" fill="#BF9D22"/>
<path fill-rule="evenodd" clip-rule="evenodd" d="M89.4108 180.784C90.1632 177.12 91.6027 169.792 92.8459 164.95C94.0563 160.108 95.0705 157.753 94.3508 158.538C93.631 159.323 91.1447 163.249 89.378 167.993C87.6114 172.704 86.5318 178.2 86.0084 180.948C85.4849 183.696 85.4849 183.696 86.0084 183.827C86.5318 183.958 87.6114 184.187 88.1676 184.318C88.691 184.449 88.691 184.449 89.4108 180.784Z" fill="#9C7D0B"/>
<path fill-rule="evenodd" clip-rule="evenodd" d="M236.629 122.224C237.774 120.817 239.018 119.345 236.662 120.85C234.339 122.355 228.418 126.87 219.683 132.464C210.948 138.091 199.399 144.798 192.496 153.173C185.561 161.581 183.238 171.657 183.86 183.696C184.481 195.735 188.047 209.737 189.912 220.043C191.777 230.315 191.908 236.924 191.973 240.195C192.071 243.5 192.071 243.5 192.824 243.303C193.609 243.107 195.179 242.747 195.964 242.584C196.749 242.387 196.749 242.42 196.553 240.228C196.357 238.003 195.932 233.554 195.212 223.511C194.492 213.467 193.478 197.829 192.922 189.487C192.398 181.177 192.333 180.13 192.398 178.985C192.464 177.807 192.693 176.499 192.955 175.288C193.216 174.078 193.576 172.966 194.263 171.264C194.95 169.53 195.964 167.142 197.764 164.231C199.53 161.319 202.082 157.884 204.83 154.678C207.578 151.472 210.523 148.527 213.827 145.387C217.131 142.246 220.795 138.909 223.641 136.161C226.52 133.413 228.614 131.254 230.086 129.683C231.559 128.113 232.409 127.164 233.358 126.052C234.339 124.907 235.452 123.631 236.629 122.224Z" fill="#9C7D0B"/>
<path fill-rule="evenodd" clip-rule="evenodd" d="M100.927 240.228C98.7019 235.91 97.884 230.642 96.51 226.259C95.136 221.875 93.1403 218.374 92.1589 216.64C91.1774 214.906 91.1774 214.939 91.5373 218.145C91.8971 221.351 92.5842 227.764 93.1076 233.26C93.6311 238.756 93.9582 243.303 94.2854 245.593C94.5798 247.916 94.8742 247.949 95.2995 248.047C95.7248 248.145 96.2483 248.276 97.8186 248.701C99.3889 249.094 102.006 249.814 104.165 250.206C106.325 250.599 108.026 250.73 109.007 250.828C110.021 250.926 110.283 251.024 108.549 249.421C106.848 247.818 103.151 244.514 100.927 240.228Z" fill="#9C7D0B"/>
<path fill-rule="evenodd" clip-rule="evenodd" d="M181.308 108.222C185.168 108.386 190.043 108.647 193.216 108.746C196.357 108.876 197.796 108.844 198.811 109.105C199.857 109.367 200.479 109.858 202.246 110.839C204.045 111.854 207.022 113.326 205.91 113.326C204.83 113.358 199.628 111.886 193.38 110.708C187.098 109.531 179.738 108.68 175.943 108.255C172.148 107.797 171.886 107.797 173.227 107.862C174.536 107.928 177.415 108.059 181.308 108.222Z" fill="#9C7D0B"/>
<path fill-rule="evenodd" clip-rule="evenodd" d="M140.119 151.144C139.498 143.064 139.498 143.064 139.498 143.358C139.531 143.653 139.563 144.274 140.054 153.598C140.512 162.889 141.461 180.883 142.737 198.385C144.013 215.855 145.681 232.867 146.499 241.34C147.317 249.846 147.317 249.846 147.317 250.01C147.284 250.173 147.251 250.533 146.597 240.817C145.91 231.133 144.601 211.406 143.326 193.445C142.017 175.452 140.774 159.258 140.119 151.144Z" fill="#7D6305"/>
<path d="M139.007 149.378C140.362 149.378 141.461 148.279 141.461 146.924C141.461 145.569 140.362 144.471 139.007 144.471C137.652 144.471 136.553 145.569 136.553 146.924C136.553 148.279 137.652 149.378 139.007 149.378Z" fill="url(#paint3_radial)"/>
<path d="M138.745 148.756C140.1 148.756 141.199 147.658 141.199 146.303C141.199 144.948 140.1 143.849 138.745 143.849C137.39 143.849 136.292 144.948 136.292 146.303C136.292 147.658 137.39 148.756 138.745 148.756Z" fill="url(#paint4_radial)"/>
<path fill-rule="evenodd" clip-rule="evenodd" d="M114.83 65.8231C109.727 64.6781 108.778 62.6497 108.255 61.3411C107.731 60.0325 107.666 59.4436 108.091 56.7937C108.549 54.1765 109.498 49.4982 110.054 46.3575C110.61 43.2169 110.741 41.5811 113.424 39.6836C116.106 37.7534 121.308 35.5615 126.51 34.2856C131.712 33.0097 136.881 32.6826 141.821 33.7294C146.761 34.7763 151.472 37.1973 153.958 38.6694C156.412 40.1416 156.641 40.6324 157.426 43.2496C158.211 45.8341 159.552 50.5124 160.272 53.2277C161.024 55.9431 161.155 56.6956 160.992 57.6443C160.795 58.593 160.239 59.7708 159.716 60.9485C159.16 62.0936 158.603 63.2713 155.038 64.3509C151.504 65.4305 144.929 66.4774 137.011 66.8373C129.127 67.2299 119.901 66.9681 114.83 65.8231Z" fill="#2E2E2E"/>
<path d="M141.134 172.246C142.489 172.246 143.587 171.147 143.587 169.792C143.587 168.437 142.489 167.339 141.134 167.339C139.778 167.339 138.68 168.437 138.68 169.792C138.68 171.147 139.778 172.246 141.134 172.246Z" fill="url(#paint5_radial)"/>
<path d="M140.872 171.657C142.227 171.657 143.325 170.558 143.325 169.203C143.325 167.848 142.227 166.75 140.872 166.75C139.517 166.75 138.418 167.848 138.418 169.203C138.418 170.558 139.517 171.657 140.872 171.657Z" fill="url(#paint6_radial)"/>
<path d="M142.769 197.927C144.124 197.927 145.223 196.829 145.223 195.474C145.223 194.118 144.124 193.02 142.769 193.02C141.414 193.02 140.316 194.118 140.316 195.474C140.316 196.829 141.414 197.927 142.769 197.927Z" fill="url(#paint7_radial)"/>
<path d="M142.508 197.338C143.863 197.338 144.961 196.24 144.961 194.885C144.961 193.53 143.863 192.431 142.508 192.431C141.152 192.431 140.054 193.53 140.054 194.885C140.054 196.24 141.152 197.338 142.508 197.338Z" fill="url(#paint8_radial)"/>
<path d="M144.732 226.324C146.087 226.324 147.186 225.226 147.186 223.87C147.186 222.515 146.087 221.417 144.732 221.417C143.377 221.417 142.279 222.515 142.279 223.87C142.279 225.226 143.377 226.324 144.732 226.324Z" fill="url(#paint9_radial)"/>
<path d="M144.438 225.735C145.793 225.735 146.891 224.637 146.891 223.282C146.891 221.927 145.793 220.828 144.438 220.828C143.083 220.828 141.984 221.927 141.984 223.282C141.984 224.637 143.083 225.735 144.438 225.735Z" fill="url(#paint10_radial)"/>
<path d="M146.924 247.916C148.279 247.916 149.378 246.818 149.378 245.463C149.378 244.107 148.279 243.009 146.924 243.009C145.569 243.009 144.471 244.107 144.471 245.463C144.471 246.818 145.569 247.916 146.924 247.916Z" fill="url(#paint11_radial)"/>
<path d="M146.662 247.327C148.018 247.327 149.116 246.229 149.116 244.874C149.116 243.519 148.018 242.42 146.662 242.42C145.307 242.42 144.209 243.519 144.209 244.874C144.209 246.229 145.307 247.327 146.662 247.327Z" fill="url(#paint12_radial)"/>
<path fill-rule="evenodd" clip-rule="evenodd" d="M115.092 115.648C114.503 115.387 113.326 114.765 112.54 114.274C111.755 113.784 111.363 113.456 112.442 112.573C113.489 111.69 116.041 110.25 117.415 109.596C118.789 108.942 119.018 109.138 119.051 109.661C119.083 110.218 118.92 111.166 118.298 112.181C117.677 113.162 116.597 114.242 116.041 114.798C115.485 115.321 115.419 115.321 115.452 115.419C115.485 115.485 115.583 115.648 115.648 115.779C115.714 115.877 115.714 115.943 115.092 115.648Z" fill="#9C7D0B"/>
<path fill-rule="evenodd" clip-rule="evenodd" d="M171.003 62.6826C169.4 63.1079 166.521 63.5659 162.987 63.6967C159.454 63.8276 155.299 63.5986 152.191 63.5332C149.083 63.4677 147.055 63.5986 145.845 63.4677C144.601 63.3696 144.143 63.0424 144.111 62.29C144.078 61.5702 144.471 60.4252 147.317 59.8036C150.163 59.2147 155.496 59.0839 160.305 58.6913C165.114 58.2987 169.4 57.6444 171.526 57.4481C173.685 57.2518 173.62 57.5135 173.554 58.2333C173.456 58.953 173.325 60.1635 173.129 60.9814C172.9 61.7992 172.606 62.2245 171.003 62.6826Z" fill="#FFBC6A"/>
<path fill-rule="evenodd" clip-rule="evenodd" d="M154.743 59.5745C153.762 59.0838 152.584 58.1023 151.472 57.7751C150.327 57.4153 149.247 57.7424 147.611 58.2659C146.008 58.822 143.849 59.6072 141.559 60.2942C139.236 60.9485 136.75 61.5374 135.016 61.3084C133.282 61.0794 132.268 60.0652 132.3 59.1492C132.366 58.2659 133.511 57.4807 136.03 56.1067C138.549 54.7326 142.508 52.7697 146.532 51.363C150.588 49.9562 154.743 49.0729 159.062 49.1056C163.413 49.1383 167.96 50.0216 170.643 50.5124C173.325 51.0031 174.176 51.1012 174.601 51.134C175.027 51.1667 175.027 51.1667 174.798 52.1481C174.569 53.0969 174.143 55.0271 173.849 56.4665C173.554 57.906 173.423 58.822 173.325 59.6072C173.194 60.3924 173.129 61.0467 170.414 61.1121C167.731 61.1775 162.431 60.5887 159.421 60.3269C156.412 60.0652 155.692 60.0652 154.743 59.5745Z" fill="#FFBC6A"/>
<path fill-rule="evenodd" clip-rule="evenodd" d="M135.147 100.632C135.965 100.403 137.666 100.174 138.68 100.109C139.694 100.043 140.021 100.174 140.087 100.338C140.152 100.501 139.923 100.73 139.596 101.057C139.236 101.417 138.778 101.843 138.222 102.039C137.666 102.202 136.979 102.072 136.423 102.072C135.866 102.072 135.408 102.202 135.081 102.072C134.721 101.973 134.525 101.646 134.394 101.352C134.296 101.057 134.296 100.828 135.147 100.632Z" fill="#212121"/>
<path fill-rule="evenodd" clip-rule="evenodd" d="M135.539 99.4216C136.095 99.258 137.568 99.0944 138.189 99.1271C138.778 99.1599 138.582 99.3889 138.189 99.4543C137.829 99.5524 137.339 99.487 136.881 99.5197C136.423 99.5524 136.03 99.6506 135.67 99.6506C135.31 99.6506 134.95 99.5524 135.539 99.4216Z" fill="#EBB057"/>
<path fill-rule="evenodd" clip-rule="evenodd" d="M157.916 83.3584C157.197 85.7139 155.79 90.4903 153.696 94.5143C151.602 98.5383 148.822 101.81 147.349 103.511C145.877 105.179 145.779 105.245 146.27 105.049C146.761 104.82 147.873 104.362 149.411 103.217C150.981 102.072 152.944 100.272 154.22 98.7346C155.528 97.1642 156.183 95.8556 156.739 93.7291C157.295 91.5699 157.753 88.5928 158.08 86.3355C158.374 84.0454 158.473 82.5078 158.538 81.7553C158.604 80.9702 158.604 80.9702 157.916 83.3584Z" fill="#FCA352"/>
<path fill-rule="evenodd" clip-rule="evenodd" d="M186.477 64.2855C193.74 67.4916 208.298 73.9038 216.608 78.3857C224.917 82.8677 226.978 85.4195 228.025 86.5645C229.105 87.6769 229.17 87.3824 225.67 85.5831C222.169 83.8165 215.103 80.5122 208.952 77.7641C202.835 75.0488 197.6 72.8569 193.903 71.3847C190.174 69.8798 187.949 69.0946 186.117 68.473C184.252 67.8514 182.813 67.3607 181.471 66.9681C180.163 66.5428 179.018 66.2157 178.429 65.9212C177.873 65.6595 177.938 65.4632 178.004 65.2015C178.069 64.9725 178.167 64.7108 178.364 64.0238C178.56 63.304 178.887 62.1917 179.018 61.6355C179.181 61.0794 179.181 61.0794 186.477 64.2855Z" fill="#FCA352"/>
<path fill-rule="evenodd" clip-rule="evenodd" d="M83.8819 185.266C82.2788 187.426 79.04 192.006 75.3105 201.722C71.5809 211.406 67.3607 226.193 65.2342 233.587C63.1404 241.013 63.1404 241.013 63.1404 241.013C63.1404 241.013 63.1404 241.013 65.3978 234.732C67.6551 228.451 72.1371 215.921 75.245 207.546C78.3203 199.203 79.9888 195.016 81.1665 192.268C82.3115 189.552 82.9986 188.276 83.6201 187.066C84.2417 185.888 84.8633 184.776 85.1905 184.089C85.4849 183.402 85.5176 183.107 83.8819 185.266Z" fill="#FCA352"/>
<path fill-rule="evenodd" clip-rule="evenodd" d="M132.562 98.2112C132.3 98.0803 132.333 98.0803 133.053 98.0476C133.773 98.0149 135.179 97.9168 136.619 97.7859C138.026 97.655 139.465 97.4915 140.185 97.3933C140.905 97.3279 140.905 97.3279 140.708 97.4588C140.512 97.6223 140.087 97.9495 138.942 98.1785C137.764 98.4075 135.866 98.6038 134.623 98.5711C133.38 98.5384 132.824 98.3094 132.562 98.2112Z" fill="#FCA352"/>
<path fill-rule="evenodd" clip-rule="evenodd" d="M109.531 116.27C109.563 118.429 109.629 121.57 111.428 124.514C113.195 127.491 116.695 130.272 119.542 132.497C122.355 134.721 124.514 136.357 126.51 137.666C128.506 138.942 130.37 139.89 131.123 140.414C131.908 140.937 131.581 141.035 131.417 141.101C131.221 141.134 131.221 141.134 131.352 138.745C131.483 136.39 131.744 131.679 131.842 129.291C131.941 126.87 131.81 126.739 128.996 125.234C126.183 123.696 120.654 120.785 117.742 119.051C114.798 117.35 114.471 116.826 114.144 116.434C113.784 116.041 113.456 115.779 114.045 114.601C114.634 113.391 116.172 111.33 117.284 110.218C118.364 109.105 119.051 109.007 119.411 108.942C119.738 108.876 119.738 108.876 119.738 108.451C119.705 108.026 119.672 107.208 119.672 106.783C119.64 106.325 119.64 106.292 119.64 106.194C119.64 106.128 119.64 105.997 119.378 106.03C119.116 106.03 118.626 106.194 116.924 107.175C115.256 108.157 112.377 109.956 110.937 111.461C109.531 112.933 109.498 114.111 109.531 116.27Z" fill="#A18214"/>
<path fill-rule="evenodd" clip-rule="evenodd" d="M141.788 127.557C141.788 127.622 141.853 127.622 142.638 129.258C143.456 130.861 145.027 134.067 146.008 136.095C146.99 138.124 147.382 138.974 148.952 138.713C150.523 138.484 153.205 137.11 155.888 134.558C158.571 131.973 161.188 128.211 162.824 124.94C164.46 121.668 165.081 118.92 164.721 116.139C164.361 113.358 163.02 110.545 161.352 108.844C159.716 107.142 157.753 106.554 156.739 106.194C155.725 105.834 155.659 105.736 155.626 105.932C155.594 106.128 155.561 106.619 155.561 106.881C155.561 107.142 155.561 107.142 155.561 107.372C155.594 107.568 155.659 108.026 155.692 108.353C155.725 108.68 155.757 108.909 156.15 109.531C156.51 110.12 157.229 111.134 157.851 112.017C158.44 112.933 158.931 113.718 159.192 114.438C159.421 115.158 159.421 115.812 157.066 117.546C154.71 119.28 149.999 122.126 147.055 123.827C144.143 125.528 143.031 126.085 142.475 126.444C141.886 126.837 141.886 127.001 141.853 127.197C141.821 127.36 141.788 127.491 141.788 127.557Z" fill="#BFA119"/>
<path fill-rule="evenodd" clip-rule="evenodd" d="M131.875 127.557C131.875 127.622 131.842 127.622 131.025 129.225C130.239 130.861 128.669 134.067 127.688 136.095C126.706 138.124 126.281 138.974 124.743 138.713C123.173 138.484 120.458 137.11 117.808 134.558C115.125 131.973 112.475 128.211 110.839 124.94C109.204 121.668 108.582 118.92 108.942 116.139C109.302 113.358 110.676 110.545 112.54 108.876C114.438 107.175 116.826 106.619 118.102 106.357C119.378 106.096 119.509 106.161 119.574 106.161C119.64 106.194 119.64 106.194 119.64 106.652C119.672 107.077 119.672 107.928 119.705 108.386C119.705 108.811 119.705 108.811 119.378 108.974C119.018 109.171 118.331 109.531 117.677 110.087C116.99 110.643 116.368 111.395 115.812 112.148C115.223 112.933 114.732 113.718 114.503 114.438C114.242 115.158 114.242 115.812 116.63 117.546C118.985 119.28 123.696 122.126 126.575 123.827C129.422 125.528 130.436 126.117 130.992 126.477C131.548 126.87 131.679 127.033 131.777 127.197C131.842 127.36 131.875 127.491 131.875 127.557Z" fill="#BFA119"/>
<path fill-rule="evenodd" clip-rule="evenodd" d="M136.881 87.6115C136.553 87.5461 135.736 87.6443 135.572 87.448C135.408 87.219 135.866 86.6301 135.801 86.5974C135.736 86.5319 135.179 86.99 134.918 87.3171C134.623 87.6443 134.623 87.8733 135.016 88.0041C135.408 88.1023 136.194 88.1023 136.652 88.0041C137.11 87.8733 137.208 87.6443 136.881 87.6115Z" fill="#FCA352"/>
<path d="M124.122 94.8415C126.163 94.8415 127.818 92.8056 127.818 90.2941C127.818 87.7827 126.163 85.7467 124.122 85.7467C122.08 85.7467 120.425 87.7827 120.425 90.2941C120.425 92.8056 122.08 94.8415 124.122 94.8415Z" fill="#FFC266"/>
<path d="M148.167 91.9952C150.209 91.9952 151.864 89.9593 151.864 87.4478C151.864 84.9363 150.209 82.9004 148.167 82.9004C146.126 82.9004 144.471 84.9363 144.471 87.4478C144.471 89.9593 146.126 91.9952 148.167 91.9952Z" fill="#FFC266"/>
<path fill-rule="evenodd" clip-rule="evenodd" d="M126.314 107.731C126.608 109.433 127.851 111.297 128.865 112.115C129.879 112.9 130.599 112.639 131.941 113.064C133.282 113.489 135.212 114.634 137.077 115.027C138.909 115.419 140.643 115.06 142.05 114.274C143.456 113.522 144.536 112.279 145.616 111.395C146.695 110.512 147.742 109.989 148.429 109.236C149.116 108.484 149.411 107.568 149.214 106.161C149.051 104.722 148.364 102.824 147.349 102.922C146.335 103.02 145.027 105.147 142.279 106.226C139.53 107.339 135.376 107.437 132.693 106.717C129.978 105.997 128.734 104.46 127.753 104.493C126.772 104.493 126.052 106.03 126.314 107.731Z" fill="#1F1F1F"/>
<path d="M22.4754 54.3727C24.2093 52.9005 26.1068 51.5265 28.1679 50.2506C30.1962 48.942 32.3882 47.8296 34.7437 46.8482C37.0991 45.8994 39.6509 45.147 42.3336 44.5908C45.049 44.0674 47.9606 43.7729 51.134 43.7729C55.5505 43.7729 59.5418 44.3618 63.1078 45.5396C66.641 46.7173 69.6508 48.4185 72.1372 50.6104C74.6562 52.8024 76.5865 55.4196 77.9278 58.4948C79.2691 61.6028 79.9234 65.0379 79.9234 68.8001C79.9234 72.3988 79.4327 75.5067 78.4185 78.0912C77.437 80.7085 76.1939 82.9658 74.6562 84.896C73.1513 86.8262 71.4829 88.462 69.6508 89.8687C67.8515 91.2755 66.1176 92.5841 64.5145 93.7946C62.8788 95.005 61.472 96.2155 60.2615 97.3932C59.0838 98.571 58.3313 99.8796 58.0369 101.352L56.074 111.265H41.0904L39.5528 99.8796C39.4874 99.6179 39.4874 99.3234 39.4546 99.029C39.4219 98.7673 39.3892 98.4728 39.3892 98.1784C39.3892 96.1173 39.9127 94.318 40.8941 92.7477C41.8756 91.2101 43.1188 89.7706 44.6237 88.462C46.1286 87.1861 47.7643 85.9429 49.4982 84.7324C51.2321 83.522 52.8679 82.2461 54.3728 80.872C55.8777 79.4653 57.1209 77.9277 58.1023 76.1938C59.0838 74.4926 59.5745 72.4642 59.5745 70.1087C59.5745 67.2952 58.6585 65.0379 56.8264 63.3694C54.9617 61.6682 52.3772 60.8503 49.1384 60.8503C46.652 60.8503 44.5909 61.112 42.9225 61.6355C41.254 62.1589 39.8145 62.7151 38.604 63.3694C37.3936 63.991 36.3467 64.5798 35.4634 65.1033C34.5474 65.6267 33.664 65.8557 32.7807 65.8557C30.7524 65.8557 29.2475 65.0051 28.266 63.2712L22.4754 54.3727ZM35.4634 136.717C35.4634 135.048 35.7905 133.445 36.4121 132.006C37.0664 130.534 37.917 129.258 39.0293 128.178C40.1417 127.099 41.4176 126.248 42.9225 125.594C44.4274 124.972 46.0958 124.645 47.8625 124.645C49.6291 124.645 51.2321 124.972 52.737 125.594C54.2419 126.248 55.5505 127.099 56.6956 128.178C57.8406 129.258 58.7239 130.534 59.3455 132.006C59.9998 133.445 60.2943 135.048 60.2943 136.717C60.2943 138.418 59.9998 139.988 59.3455 141.493C58.7239 142.966 57.8406 144.241 56.6956 145.321C55.5505 146.433 54.2419 147.251 52.737 147.873C51.2321 148.494 49.6291 148.789 47.8625 148.789C46.0958 148.789 44.4274 148.494 42.9225 147.873C41.4176 147.251 40.1417 146.433 39.0293 145.321C37.917 144.241 37.0664 142.966 36.4121 141.493C35.7905 139.988 35.4634 138.418 35.4634 136.717Z" fill="#F39D1B"/>
<defs>
<linearGradient id="paint0_linear" x1="43.3801" y1="198.63" x2="88.5952" y2="211.942" gradientUnits="userSpaceOnUse">
<stop stop-color="#FFC56A"/>
<stop offset="1" stop-color="#FFA66A"/>
</linearGradient>
<linearGradient id="paint1_linear" x1="230.726" y1="47.8179" x2="202.589" y2="110.015" gradientUnits="userSpaceOnUse">
<stop stop-color="#FFC56A"/>
<stop offset="1" stop-color="#FFA66A"/>
</linearGradient>
<linearGradient id="paint2_linear" x1="139.969" y1="95.5227" x2="135.898" y2="143.022" gradientUnits="userSpaceOnUse">
<stop stop-color="#FFC46B"/>
<stop offset="1" stop-color="#FFA56A"/>
</linearGradient>
<radialGradient id="paint3_radial" cx="0" cy="0" r="1" gradientUnits="userSpaceOnUse" gradientTransform="translate(139.033 145.79) rotate(-90) scale(2.02244)">
<stop stop-color="#D1A71E"/>
<stop offset="1" stop-color="#7D6305"/>
</radialGradient>
<radialGradient id="paint4_radial" cx="0" cy="0" r="1" gradientUnits="userSpaceOnUse" gradientTransform="translate(138.758 145.161) rotate(-90) scale(2.02256 2.02244)">
<stop stop-color="#D1A71E"/>
<stop offset="1" stop-color="#AB8B19"/>
</radialGradient>
<radialGradient id="paint5_radial" cx="0" cy="0" r="1" gradientUnits="userSpaceOnUse" gradientTransform="translate(141.125 168.68) rotate(-90) scale(2.02245 2.0223)">
<stop stop-color="#D1A71E"/>
<stop offset="1" stop-color="#7D6305"/>
</radialGradient>
<radialGradient id="paint6_radial" cx="0" cy="0" r="1" gradientUnits="userSpaceOnUse" gradientTransform="translate(140.868 168.063) rotate(-90) scale(2.02244)">
<stop stop-color="#D1A71E"/>
<stop offset="1" stop-color="#AB8B19"/>
</radialGradient>
<radialGradient id="paint7_radial" cx="0" cy="0" r="1" gradientUnits="userSpaceOnUse" gradientTransform="translate(142.765 194.351) rotate(-90) scale(2.02243)">
<stop stop-color="#D1A71E"/>
<stop offset="1" stop-color="#7D6305"/>
</radialGradient>
<radialGradient id="paint8_radial" cx="0" cy="0" r="1" gradientUnits="userSpaceOnUse" gradientTransform="translate(142.49 193.753) rotate(-90) scale(2.02259 2.02244)">
<stop stop-color="#D1A71E"/>
<stop offset="1" stop-color="#AB8B19"/>
</radialGradient>
<radialGradient id="paint9_radial" cx="0" cy="0" r="1" gradientUnits="userSpaceOnUse" gradientTransform="translate(144.721 222.746) rotate(-90) scale(2.02256)">
<stop stop-color="#D1A71E"/>
<stop offset="1" stop-color="#7D6305"/>
</radialGradient>
<radialGradient id="paint10_radial" cx="0" cy="0" r="1" gradientUnits="userSpaceOnUse" gradientTransform="translate(144.457 222.144) rotate(-90) scale(2.02244)">
<stop stop-color="#D1A71E"/>
<stop offset="1" stop-color="#AB8B19"/>
</radialGradient>
<radialGradient id="paint11_radial" cx="0" cy="0" r="1" gradientUnits="userSpaceOnUse" gradientTransform="translate(146.916 244.329) rotate(-90) scale(2.02244)">
<stop stop-color="#D1A71E"/>
<stop offset="1" stop-color="#7D6305"/>
</radialGradient>
<radialGradient id="paint12_radial" cx="0" cy="0" r="1" gradientUnits="userSpaceOnUse" gradientTransform="translate(146.642 243.745) rotate(-90) scale(2.02243)">
<stop stop-color="#D1A71E"/>
<stop offset="1" stop-color="#AB8B19"/>
</radialGradient>
</defs>
</svg>
