<svg width="314" height="314" viewBox="0 0 314 314" fill="none" xmlns="http://www.w3.org/2000/svg">
<path fill-rule="evenodd" clip-rule="evenodd" d="M1.21969 138.237C6.20124 108.507 26.247 77.5817 61.3968 59.688C96.5865 41.7942 146.92 36.9322 190.439 42.2725C233.918 47.5728 270.622 63.0356 289.592 94.7182C308.522 126.401 309.757 174.303 290.189 211.008C270.622 247.672 230.291 273.137 181.193 273.616C132.055 274.054 74.1496 249.505 40.1953 222.963C6.20124 196.422 -3.80172 167.927 1.21969 138.237Z" fill="#F8F8F8"/>
<mask id="mask0" mask-type="alpha" maskUnits="userSpaceOnUse" x="0" y="40" width="305" height="234">
<path fill-rule="evenodd" clip-rule="evenodd" d="M1.21969 138.324C6.20124 108.594 26.247 77.6683 61.3968 59.7746C96.5865 41.8809 146.92 37.0189 190.439 42.3591C233.918 47.6595 270.622 63.1222 289.592 94.8049C308.522 126.488 309.757 174.39 290.189 211.094C270.622 247.758 230.291 273.224 181.193 273.702C132.055 274.141 74.1496 249.592 40.1953 223.05C6.20124 196.508 -3.80172 168.014 1.21969 138.324Z" fill="#05FF00"/>
</mask>
<g mask="url(#mask0)">
<path fill-rule="evenodd" clip-rule="evenodd" d="M170.275 261.519C169.757 265.425 168.88 273.116 168.442 276.982C168.003 280.848 168.003 280.848 181.633 280.848C195.223 280.848 222.482 280.888 235.992 280.967C249.502 281.007 249.302 281.127 248.944 275.189C248.545 269.211 247.987 257.215 247.708 251.198C247.429 245.18 247.429 245.18 234.716 247.212C221.964 249.285 196.458 253.389 183.665 255.462C170.873 257.574 170.753 257.654 170.275 261.519Z" fill="#39455C"/>
</g>
<path fill-rule="evenodd" clip-rule="evenodd" d="M51.8133 195.564C83.0177 195.484 144.271 195.484 174.917 195.564C205.524 195.683 205.524 195.843 205.524 169.102C205.524 142.401 205.524 88.7194 205.683 61.819C205.843 34.9186 206.122 34.7592 174.758 34.6795C143.354 34.56 80.3476 34.56 48.9838 34.56C17.6199 34.56 17.8989 34.56 18.0583 61.5002C18.2177 88.4006 18.2177 142.201 18.8155 169.022C19.4133 195.843 20.569 195.683 51.8133 195.564Z" fill="#E0E0E0"/>
<path fill-rule="evenodd" clip-rule="evenodd" d="M56.8891 188.332C85.1445 188.252 140.579 188.252 168.277 188.332C196.014 188.412 196.014 188.571 196.014 164.341C196.014 140.111 196.014 91.4907 196.133 67.1011C196.253 42.7114 196.532 42.5918 168.117 42.5121C139.742 42.4324 82.7135 42.4324 54.3386 42.4324C25.9636 42.4324 26.2426 42.4324 26.3622 66.8221C26.4817 91.2118 26.4817 139.991 27.0397 164.261C27.5577 188.571 28.6338 188.412 56.8891 188.332Z" fill="white"/>
<path d="M111.209 74.1389C103.004 74.1389 94.9821 76.5722 88.1591 81.1311C81.3362 85.69 76.0184 92.1698 72.8782 99.751C69.7379 107.332 68.9163 115.674 70.5172 123.723C72.1181 131.771 76.0696 139.163 81.872 144.966C87.6744 150.768 95.0671 154.72 103.115 156.321C111.163 157.922 119.506 157.1 127.087 153.96C134.668 150.819 141.148 145.502 145.707 138.679C150.266 131.856 152.699 123.834 152.699 115.628C152.699 104.625 148.328 94.0717 140.547 86.2909C132.766 78.5101 122.213 74.1389 111.209 74.1389ZM138.307 101.703L104.234 135.751L84.1117 115.628C83.4239 114.941 83.0376 114.008 83.0376 113.035C83.0376 112.063 83.4239 111.13 84.1117 110.442C84.7994 109.754 85.7321 109.368 86.7047 109.368C87.6773 109.368 88.6101 109.754 89.2978 110.442L104.286 125.43L133.173 96.5691C133.513 96.2286 133.918 95.9585 134.363 95.7742C134.808 95.5899 135.284 95.495 135.766 95.495C136.248 95.495 136.725 95.5899 137.169 95.7742C137.614 95.9585 138.019 96.2286 138.359 96.5691C138.7 96.9097 138.97 97.3139 139.154 97.7589C139.338 98.2038 139.433 98.6807 139.433 99.1622C139.433 99.6438 139.338 100.121 139.154 100.566C138.97 101.011 138.7 101.415 138.359 101.755L138.307 101.703Z" fill="#3FC03F"/>
<path fill-rule="evenodd" clip-rule="evenodd" d="M176.651 261.36C169.199 259.925 170.195 255.9 171.152 250.361C172.148 244.861 173.065 237.887 173.662 229.637C174.3 221.388 174.579 211.823 172.945 201.143C171.351 190.423 167.804 178.587 168.083 172.728C168.322 166.91 172.427 167.109 178.883 163.004C185.379 158.86 194.306 150.371 204.11 148.936C213.953 147.542 224.713 153.201 231.807 156.229C238.861 159.258 242.169 159.657 242.727 165.316C243.285 171.015 241.053 181.974 240.495 191.618C239.897 201.263 241.013 209.632 242.567 217.761C244.161 225.891 246.234 233.822 247.788 239.282C249.342 244.702 250.338 247.651 244.958 250.759C239.578 253.868 227.782 257.136 213.913 259.367C200.085 261.599 184.104 262.795 176.651 261.36Z" fill="#F5F5F5"/>
<path fill-rule="evenodd" clip-rule="evenodd" d="M191.795 156.668C189.842 155.871 189.683 153.28 189.524 151.049C189.364 148.817 189.285 146.944 189.205 145.987C189.165 145.071 189.165 145.071 190.998 144.074C192.831 143.078 196.538 141.125 199.208 139.85C201.878 138.575 203.552 138.017 205.066 139.81C206.58 141.564 207.896 145.668 209.33 148.179C210.765 150.73 212.319 151.646 210.964 152.603C209.649 153.519 205.425 154.436 201.44 155.432C197.494 156.389 193.748 157.425 191.795 156.668Z" fill="url(#paint0_linear)"/>
<path fill-rule="evenodd" clip-rule="evenodd" d="M264.685 158.78C272.935 157.226 288.437 154.038 296.288 152.404C304.139 150.77 304.338 150.65 304.378 149.534C304.378 148.378 304.219 146.187 303.98 143.835C303.741 141.484 303.422 138.933 303.302 137.897C303.183 136.901 303.262 137.419 303.581 137.698C303.9 137.977 304.498 138.057 305.016 139.013C305.494 139.97 305.932 141.843 307.885 143.835C309.838 145.788 313.305 147.86 313.903 150.491C314.501 153.081 312.189 156.229 310.994 157.784C309.758 159.378 309.599 159.378 301.429 162.367C293.259 165.356 277.039 171.294 268.949 174.283C260.82 177.271 260.82 177.271 259.783 174.442C258.707 171.612 256.595 165.953 256.037 163.124C255.439 160.294 256.436 160.334 264.685 158.78Z" fill="url(#paint1_linear)"/>
<path fill-rule="evenodd" clip-rule="evenodd" d="M172.347 227.087C172.865 230.235 174.42 237.17 176.771 241.035C179.162 244.901 182.39 245.738 183.506 245.738C184.622 245.738 183.625 244.901 182.629 243.147C181.633 241.394 180.557 238.724 179.879 235.615C179.162 232.547 178.803 229.04 177.687 227.246C176.572 225.453 174.699 225.373 173.503 225.015C172.307 224.656 171.829 223.978 172.347 227.087Z" fill="#1A1A1A"/>
<path fill-rule="evenodd" clip-rule="evenodd" d="M271.859 168.783C279.51 166.591 294.296 163.124 301.708 161.37C309.121 159.657 309.161 159.657 301.788 162.327C294.455 164.997 279.749 170.337 272.217 173.087C264.645 175.837 264.287 175.956 264.008 175.478C263.729 175 263.569 173.884 263.689 172.888C263.848 171.891 264.247 170.975 271.859 168.783Z" fill="#FCA451"/>
<path fill-rule="evenodd" clip-rule="evenodd" d="M264.964 172.888C265.283 176.913 265.004 178.427 261.218 180.34C257.392 182.213 250.059 184.485 246.074 185.84C242.049 187.235 241.411 187.713 241.571 187.035C241.69 186.318 242.687 184.485 242.647 183.449C242.607 182.412 241.571 182.253 240.256 178.866C238.941 175.478 237.307 168.863 236.589 164.917C235.872 160.972 236.031 159.657 236.47 159.338C236.908 159.059 237.586 159.736 242.049 159.338C246.513 158.899 254.722 157.345 259.265 159.856C263.808 162.327 264.685 168.863 264.964 172.888Z" fill="#F5F5F5"/>
<path fill-rule="evenodd" clip-rule="evenodd" d="M154.653 215.729C153.258 218.957 149.273 224.496 147.28 227.286C145.287 230.076 145.248 230.076 145.168 230.275C145.088 230.474 144.929 230.873 143.614 228.482C142.298 226.091 139.788 220.91 137.915 215.171C136.042 209.432 134.727 203.175 134.846 198.553C134.966 193.93 136.48 190.941 136.36 188.948C136.281 186.916 134.567 185.88 133.411 186.437C132.256 187.035 131.658 189.187 130.941 190.502C130.263 191.778 129.426 192.216 129.147 192.017C128.828 191.818 129.067 190.981 128.868 190.064C128.709 189.108 128.071 188.111 127.314 187.314C126.597 186.517 125.68 185.919 123.966 185.999C122.253 186.039 119.742 186.796 117.949 188.51C116.155 190.223 115.119 192.894 115.558 195.404C116.036 197.915 117.949 200.226 119.304 202.099C120.659 203.972 121.376 205.367 121.814 206.523C122.213 207.679 122.332 208.595 123.966 213.736C125.6 218.877 128.789 228.243 132.017 235.018C135.245 241.792 138.513 245.977 141.183 248.488C143.893 251.038 145.965 251.915 149.751 250.042C153.577 248.209 159.076 243.586 163.659 237.488C168.242 231.391 171.869 223.819 173.622 219.515C175.376 215.211 175.296 214.135 172.825 212.82C170.355 211.465 165.493 209.831 161.906 209.432C158.319 209.034 155.928 209.871 155.37 210.708C154.812 211.584 156.048 212.501 154.653 215.729Z" fill="url(#paint2_linear)"/>
<path fill-rule="evenodd" clip-rule="evenodd" d="M182.908 159.976C179.999 159.657 174.778 160.852 171.71 163.243C168.681 165.635 167.844 169.221 167.884 170.297C167.924 171.333 168.8 169.859 170.873 168.823C172.905 167.747 176.133 167.149 178.684 166.711C181.274 166.232 183.227 165.953 184.502 165.475C185.778 165.037 186.375 164.439 186.375 163.243C186.375 162.048 185.817 160.255 182.908 159.976Z" fill="#1A1A1A"/>
<path fill-rule="evenodd" clip-rule="evenodd" d="M178.245 169.102C177.568 169.022 176.691 168.902 174.898 169.261C173.144 169.62 170.514 170.496 169.279 170.855C168.003 171.214 168.123 171.054 168.522 170.496C168.88 169.939 169.478 168.982 170.952 168.065C172.427 167.109 174.778 166.192 176.372 165.794C177.966 165.395 178.843 165.475 179.481 165.674C180.079 165.834 180.517 166.073 180.517 166.671C180.557 167.268 180.158 168.265 179.76 168.703C179.361 169.181 178.923 169.181 178.245 169.102Z" fill="#D1D1D1"/>
<path fill-rule="evenodd" clip-rule="evenodd" d="M261.377 173.924C257.711 175.319 250.378 178.626 246.592 180.499C242.806 182.333 242.607 182.691 242.766 183.568C242.886 184.485 243.404 185.919 243.524 186.677C243.643 187.434 243.444 187.513 245.715 186.716C247.987 185.919 252.809 184.246 255.838 183.13C258.867 182.054 260.142 181.496 261.258 180.898C262.334 180.3 263.29 179.663 263.848 179.184C264.406 178.706 264.605 178.387 264.805 177.909C264.964 177.431 265.084 176.833 265.163 176.076C265.203 175.319 265.203 174.442 265.163 173.725C265.124 173.047 265.084 172.529 261.377 173.924Z" fill="#D6D6D6"/>
<path fill-rule="evenodd" clip-rule="evenodd" d="M177.329 176.554C174.858 188.789 174.42 207.041 175.137 219.475C175.894 231.909 177.847 238.564 182.31 245.778C186.814 252.951 193.828 260.722 206.7 262.117C219.612 263.472 238.383 258.491 247.031 248.687C255.639 238.923 254.084 224.337 251.972 211.744C249.9 199.19 247.27 188.669 244.321 180.061C241.372 171.413 238.144 164.678 233.56 159.617C228.938 154.556 223 151.128 215.308 150.092C207.617 149.056 198.172 150.411 191.237 154.237C184.263 158.023 179.8 164.28 177.329 176.554Z" fill="url(#paint3_linear)"/>
<path fill-rule="evenodd" clip-rule="evenodd" d="M169.717 172.33C168.521 170.257 168.561 170.178 167.007 172.808C165.453 175.478 162.344 180.818 159.834 188.151C157.323 195.484 155.41 204.77 154.374 209.751C153.338 214.773 153.138 215.45 156.566 217.482C159.953 219.515 166.927 222.863 170.434 224.337C173.981 225.812 174.061 225.373 174.141 224.855C174.22 224.377 174.3 223.819 174.619 219.356C174.898 214.932 175.416 206.643 175.655 199.868C175.894 193.093 175.814 187.872 174.579 183.17C173.344 178.507 170.913 174.402 169.717 172.33Z" fill="#F5F5F5"/>
<path fill-rule="evenodd" clip-rule="evenodd" d="M174.26 202.896C172.427 206.324 169.159 214.294 167.525 218.319C165.891 222.305 165.891 222.305 166.648 222.623C167.406 222.982 168.92 223.66 169.956 224.138C170.992 224.656 171.55 224.935 171.829 225.054C172.068 225.134 171.989 225.015 172.786 221.069C173.623 217.124 175.296 209.353 175.934 204.929C176.572 200.505 176.133 199.429 174.26 202.896Z" fill="#D6D6D6"/>
<path fill-rule="evenodd" clip-rule="evenodd" d="M184.423 246.814C186.933 249.085 192.313 253.629 201.838 254.864C211.403 256.099 225.112 254.027 234.278 250.52C243.444 247.013 248.067 242.071 250.458 238.803C252.889 235.536 253.128 233.942 252.889 234.898C252.65 235.854 251.972 239.361 250.538 242.629C249.103 245.937 246.951 249.046 242.408 252.274C237.904 255.502 230.97 258.849 223.677 260.563C216.384 262.277 208.733 262.396 202.635 261.001C196.538 259.646 191.955 256.857 188.846 253.868C185.738 250.879 184.104 247.73 183.147 246.136C182.191 244.542 181.872 244.542 184.423 246.814Z" fill="#212121"/>
<path fill-rule="evenodd" clip-rule="evenodd" d="M175.177 199.15C173.981 201.701 172.188 210.03 171.749 216.725C171.311 223.42 172.228 228.442 173.583 232.587C174.938 236.731 176.771 240.039 177.608 239.959C178.484 239.88 178.405 236.492 178.245 229.797C178.046 223.062 177.847 213.059 177.408 206.403C176.97 199.788 176.372 196.56 175.177 199.15Z" fill="url(#paint4_linear)"/>
<path fill-rule="evenodd" clip-rule="evenodd" d="M248.226 192.894C249.462 195.046 253.208 203.375 255.041 210.07C256.874 216.805 256.795 221.906 256.117 225.772C255.44 229.638 254.164 232.268 253.566 234.061C252.929 235.815 252.969 236.691 252.849 232.866C252.69 229 252.331 220.392 251.733 213.936C251.175 207.44 250.338 203.136 249.262 198.991C248.226 194.806 246.991 190.742 248.226 192.894Z" fill="url(#paint5_linear)"/>
<path fill-rule="evenodd" clip-rule="evenodd" d="M211.163 152.483C202.794 152.364 194.665 154.954 189.842 162.725C185.02 170.536 183.546 183.488 183.466 196.998C183.386 210.508 184.701 224.496 186.455 233.782C188.208 243.068 190.36 247.651 197.653 249.882C204.946 252.154 217.38 252.074 227.025 249.843C236.709 247.611 243.603 243.227 246.991 235.137C250.418 227.047 250.378 215.33 248.067 201.9C245.755 188.43 241.212 173.326 234.636 164.359C228.101 155.392 219.532 152.603 211.163 152.483Z" fill="url(#paint6_linear)"/>
<path fill-rule="evenodd" clip-rule="evenodd" d="M189.085 152.125C184.941 152.643 179.879 151.009 175.695 145.868C171.51 140.727 168.242 132.079 168.92 124.626C169.597 117.174 174.22 110.917 179.72 108.606C185.22 106.294 191.636 107.928 195.9 109.801C200.124 111.674 202.237 113.747 203.99 118.768C205.704 123.79 207.138 131.76 206.341 136.821C205.584 141.883 202.595 144.074 199.527 146.466C196.418 148.897 193.23 151.606 189.085 152.125Z" fill="#FFBA69"/>
<path fill-rule="evenodd" clip-rule="evenodd" d="M201.718 137.977C201.439 139.053 201.24 141.046 200.204 142.958C199.128 144.871 197.215 146.705 195.222 148.219C193.23 149.733 191.158 150.929 190.201 151.527C189.245 152.085 189.444 152.085 191.397 151.128C193.349 150.172 197.096 148.299 199.686 146.306C202.316 144.313 203.831 142.241 204.707 140.966C205.544 139.691 205.743 139.172 205.704 138.933C205.624 138.654 205.305 138.694 204.747 138.336C204.229 137.977 203.392 137.26 202.834 136.981C202.276 136.741 201.958 136.861 201.718 137.977Z" fill="#FCA451"/>
<path fill-rule="evenodd" clip-rule="evenodd" d="M171.191 134.39C171.271 135.865 170.913 136.144 170.713 136.184C170.514 136.223 170.474 136.024 169.717 135.068C168.96 134.071 167.525 132.278 166.688 129.249C165.811 126.221 165.532 121.996 165.094 120.801C164.616 119.605 164.018 121.478 163.5 120.601C162.982 119.764 162.544 116.178 164.177 112.392C165.811 108.646 169.558 104.7 173.941 101.831C178.365 98.9615 183.426 97.1681 188.727 97.5268C193.987 97.9253 199.527 100.436 203.791 104.939C208.095 109.403 211.163 115.819 211.442 121.797C211.682 127.775 209.171 133.274 207.776 136.064C206.381 138.814 206.142 138.814 205.305 138.694C204.508 138.575 203.113 138.296 202.396 136.861C201.718 135.466 201.718 132.876 201.559 130.684C201.4 128.532 201.121 126.739 200.443 125.822C199.766 124.945 198.73 124.945 198.251 126.061C197.773 127.217 197.853 129.488 197.932 130.804C198.012 132.159 198.092 132.597 197.534 132.437C196.976 132.318 195.82 131.601 195.103 129.05C194.386 126.539 194.146 122.116 193.748 119.326C193.389 116.536 192.951 115.341 190.281 114.504C187.571 113.627 182.669 113.109 178.724 114.863C174.778 116.616 171.869 120.601 170.594 123.112C169.318 125.623 169.757 126.579 170.195 128.412C170.634 130.246 171.112 132.916 171.191 134.39Z" fill="url(#paint7_linear)"/>
<path fill-rule="evenodd" clip-rule="evenodd" d="M165.931 224.975C164.616 227.047 162.583 231.431 160.232 235.496C157.881 239.561 155.211 243.267 152.66 245.818C150.07 248.328 147.639 249.643 146.403 250.281C145.208 250.958 145.208 250.958 145.965 250.799C146.722 250.64 148.236 250.361 150.269 249.285C152.301 248.209 154.812 246.375 157.323 243.984C159.834 241.633 162.344 238.724 164.297 236.133C166.29 233.503 167.724 231.152 168.8 229.279C169.876 227.406 170.594 226.051 170.952 225.373C171.311 224.656 171.311 224.656 171.032 224.576C170.713 224.457 170.155 224.217 169.677 223.978C169.159 223.779 168.76 223.58 168.242 223.341C167.764 223.141 167.206 222.902 165.931 224.975Z" fill="#FCA451"/>
<path d="M187.48 131.125C188.24 130.939 188.62 129.823 188.328 128.633C188.037 127.443 187.185 126.628 186.425 126.814C185.665 127 185.285 128.116 185.576 129.307C185.868 130.497 186.72 131.311 187.48 131.125Z" fill="#202020"/>
<path d="M176.673 133.79C177.366 133.615 177.707 132.593 177.433 131.506C177.16 130.419 176.376 129.68 175.682 129.854C174.989 130.029 174.648 131.051 174.922 132.138C175.195 133.225 175.979 133.964 176.673 133.79Z" fill="#202020"/>
<path fill-rule="evenodd" clip-rule="evenodd" d="M172.945 126.739C173.304 126.42 174.34 125.583 175.217 125.344C176.133 125.065 176.851 125.344 176.811 125.583C176.771 125.822 175.974 125.941 175.256 126.141C174.539 126.34 173.941 126.539 173.463 126.739C172.985 126.938 172.626 127.057 172.945 126.739Z" fill="#202020"/>
<path fill-rule="evenodd" clip-rule="evenodd" d="M182.27 123.869C183.068 123.391 185.419 122.395 187.172 122.355C188.966 122.315 190.201 123.232 190.042 123.63C189.842 124.029 188.248 123.869 186.854 123.869C185.459 123.869 184.223 123.989 183.267 124.108C182.27 124.228 181.513 124.308 182.27 123.869Z" fill="#202020"/>
<path fill-rule="evenodd" clip-rule="evenodd" d="M179.76 142.48C180.557 142.122 182.709 141.883 184.383 141.404C186.056 140.926 187.252 140.209 187.93 140.169C188.567 140.089 188.687 140.687 187.93 141.604C187.132 142.56 185.499 143.795 184.024 144.194C182.589 144.632 181.354 144.154 180.477 143.716C179.561 143.277 179.003 142.799 179.76 142.48Z" fill="#FEFEFE"/>
<path fill-rule="evenodd" clip-rule="evenodd" d="M181.115 144.513C181.434 144.313 182.549 144.313 183.785 144.114C184.98 143.875 186.256 143.477 186.814 143.357C187.332 143.237 187.093 143.397 186.694 143.676C186.335 143.955 185.817 144.313 184.941 144.592C184.104 144.911 182.908 145.15 182.071 145.11C181.234 145.071 180.756 144.712 181.115 144.513Z" fill="#FCA451"/>
<path fill-rule="evenodd" clip-rule="evenodd" d="M181.274 134.032C181.115 134.43 181.035 135.825 181.274 136.502C181.553 137.14 182.151 137.06 182.629 136.941C183.147 136.781 183.466 136.622 183.426 136.463C183.386 136.263 182.948 136.104 182.629 135.825C182.35 135.586 182.151 135.227 181.952 134.749C181.713 134.271 181.473 133.633 181.274 134.032Z" fill="#FCA451"/>
<path d="M75.6203 183.847H30.8262C30.276 183.847 29.8299 184.382 29.8299 185.043V190.821C29.8299 191.482 30.276 192.017 30.8262 192.017H75.6203C76.1706 192.017 76.6166 191.482 76.6166 190.821V185.043C76.6166 184.382 76.1706 183.847 75.6203 183.847Z" fill="#C6C6C6"/>
<defs>
<linearGradient id="paint0_linear" x1="189.188" y1="147.8" x2="211.48" y2="147.8" gradientUnits="userSpaceOnUse">
<stop stop-color="#FFA76A"/>
<stop offset="1" stop-color="#FFC56A"/>
</linearGradient>
<linearGradient id="paint1_linear" x1="277.614" y1="136.2" x2="292.284" y2="177.659" gradientUnits="userSpaceOnUse">
<stop stop-color="#FFC669"/>
<stop offset="1" stop-color="#FFA86A"/>
</linearGradient>
<linearGradient id="paint2_linear" x1="123.087" y1="201.706" x2="167.2" y2="235.322" gradientUnits="userSpaceOnUse">
<stop stop-color="#FFC669"/>
<stop offset="1" stop-color="#FFA86A"/>
</linearGradient>
<linearGradient id="paint3_linear" x1="255.56" y1="216.495" x2="172.895" y2="195.592" gradientUnits="userSpaceOnUse">
<stop stop-color="#262626"/>
<stop offset="1" stop-color="#333333"/>
</linearGradient>
<linearGradient id="paint4_linear" x1="181.563" y1="205.684" x2="168.419" y2="232.532" gradientUnits="userSpaceOnUse">
<stop stop-color="#1F1F1F"/>
<stop offset="1" stop-color="#1A1A1A"/>
</linearGradient>
<linearGradient id="paint5_linear" x1="240.206" y1="203.959" x2="264.057" y2="223.906" gradientUnits="userSpaceOnUse">
<stop stop-color="#1F1F1F"/>
<stop offset="1" stop-color="#1A1A1A"/>
</linearGradient>
<linearGradient id="paint6_linear" x1="187.282" y1="173.636" x2="245.863" y2="230.386" gradientUnits="userSpaceOnUse">
<stop stop-color="#212121"/>
<stop offset="1" stop-color="#1C1C1C"/>
</linearGradient>
<linearGradient id="paint7_linear" x1="165.401" y1="110.708" x2="209.064" y2="125.522" gradientUnits="userSpaceOnUse">
<stop stop-color="#373435"/>
<stop offset="1" stop-color="#1A1A1A"/>
</linearGradient>
</defs>
</svg>
